<svg xmlns="http://www.w3.org/2000/svg"><symbol id="apple" viewBox="0 0 355.3 355.3"><rect width="40.5" height="120.5" x="162" y="24" fill="#ee4657" rx="20.2" ry="20.2" transform="rotate(180 182.25 84.25)"/><path fill="#ee4657" d="M177.6 307.4a80.7 80.7 0 1 1 80.7-80.7 80.7 80.7 0 0 1-80.7 80.7zm0-205.1A124.4 124.4 0 1 0 302 226.6a124.4 124.4 0 0 0-124.4-124.3z"/><path fill="none" stroke="#ee4657" stroke-miterlimit="10" stroke-width="29.37" d="M184.8 126.1c35.5-42.5 91.6-89.9 112.6-76.3s-2.1 92.5-28.3 142.3"/></symbol><symbol id="basket" viewBox="0 0 355.3 355.3"><path fill="#ee4657" d="M335.6 167.6H195.2V70.1a17.2 17.2 0 1 0-34.3 0v97.5H19.7a18.5 18.5 0 0 0-14.4 30.2L84 295.4a18.5 18.5 0 0 0 14.4 6.9h158.4a18.5 18.5 0 0 0 14.4-6.9l78.8-97.6a18.5 18.5 0 0 0-14.4-30.2zm-35.7 43.1L244 274.4a13.6 13.6 0 0 1-10.2 4.5H121.5a13.6 13.6 0 0 1-10.2-4.5l-55.9-63.7c-6.9-7.9-.8-19.7 10.2-19.7h224c11 0 17.1 11.8 10.2 19.7z"/></symbol><symbol id="facebook" viewBox="0 0 355.3 355.3"><path fill="#ee4657" d="M333.3 4H21.4A19.4 19.4 0 0 0 2 23.4v312.2A19.4 19.4 0 0 0 21.4 355H190V219.6h-46V167h46v-39c0-45.3 27.7-70 68.2-70a376.3 376.3 0 0 1 40.9 2.1v46.5h-27.8c-21.8 0-26.1 10.4-26.1 25.8V167h52.1l-6.8 52.6h-46.6V355h89.7a19.4 19.4 0 0 0 19.4-19.4V23.8a19.4 19.4 0 0 0-19.4-19.3"/></symbol><symbol id="hamburger" viewBox="0 0 355.3 355.3"><rect width="49.8" height="240.38" x="152.7" y="-42.9" fill="#ee4657" rx="24.9" ry="24.9" transform="rotate(90 177.6 77.3)"/><rect width="49.8" height="240.38" x="152.7" y="57.1" fill="#ee4657" rx="24.9" ry="24.9" transform="rotate(90 177.6 177.3)"/><rect width="49.8" height="240.38" x="152.7" y="157.1" fill="#ee4657" rx="24.9" ry="24.9" transform="rotate(90 177.6 277.3)"/></symbol><symbol id="instagram" viewBox="0 0 355.3 355.3"><path fill="#ee4657" d="M177.6 0c-48.2 0-54.3.2-73.2 1.1S72.6 4.9 61.3 9.3a87.1 87.1 0 0 0-31.5 20.5A87.1 87.1 0 0 0 9.3 61.3c-4.4 11.3-7.4 24.2-8.2 43.1S0 129.4 0 177.6s.2 54.3 1.1 73.2 3.8 31.9 8.2 43.2a87.1 87.1 0 0 0 20.5 31.5A87.1 87.1 0 0 0 61.3 346c11.3 4.4 24.2 7.4 43.1 8.3s25 1.1 73.2 1.1 54.3-.2 73.2-1.1 31.8-3.9 43.1-8.3a90.8 90.8 0 0 0 52-52c4.4-11.3 7.4-24.2 8.3-43.1s1.1-25 1.1-73.2-.2-54.3-1.1-73.2-3.9-31.8-8.3-43.1a87.1 87.1 0 0 0-20.5-31.5A87.1 87.1 0 0 0 294 9.3c-11.3-4.4-24.2-7.4-43.1-8.3s-25-1-73.3-1zm0 32c47.4 0 53 .2 71.8 1s26.7 3.7 33 6.1a55 55 0 0 1 20.4 13.3 55 55 0 0 1 13.3 20.4c2.4 6.3 5.3 15.7 6.1 33s1 24.3 1 71.8-.2 53-1 71.8-3.7 26.7-6.1 33a58.8 58.8 0 0 1-33.7 33.7c-6.3 2.4-15.7 5.3-33 6.1s-24.3 1-71.8 1-53-.2-71.8-1-26.7-3.7-33-6.1a55 55 0 0 1-20.4-13.3 55 55 0 0 1-13.3-20.4c-2.4-6.3-5.3-15.7-6.1-33s-1-24.3-1-71.8.2-53 1-71.8 3.7-26.7 6.1-33a55 55 0 0 1 13.3-20.4 55 55 0 0 1 20.5-13.2c6.3-2.4 15.7-5.3 33-6.1s24.3-1 71.8-1"/><path fill="#ee4657" d="M177.6 236.8a59.2 59.2 0 1 1 59.2-59.2 59.2 59.2 0 0 1-59.2 59.2zm0-150.4a91.2 91.2 0 1 0 91.2 91.2 91.2 91.2 0 0 0-91.2-91.2zm116.2-3.6a21.3 21.3 0 1 1-21.3-21.3 21.3 21.3 0 0 1 21.3 21.3z"/></symbol><symbol id="left-arrow" viewBox="0 0 355.3 355.3"><path fill="#ee4657" d="M125.1 129.8l67.3-67.3a33.6 33.6 0 0 1 47.6 0 33.6 33.6 0 0 1 0 47.6l-67.3 67.3 67.3 67.2a33.6 33.6 0 0 1 0 47.6 33.6 33.6 0 0 1-47.6 0l-67.3-67.3a67.3 67.3 0 0 1 0-95.1z"/></symbol><symbol id="menu-close" viewBox="0 0 355.3 355.3"><path fill="#ee4657" d="M221.6 177.3l62.3-62.3a31.1 31.1 0 0 0 0-44 31.1 31.1 0 0 0-44 0l-62.3 62.3L115.3 71a31.1 31.1 0 0 0-44 0 31.1 31.1 0 0 0 0 44l62.3 62.3-62.3 62.3a31.1 31.1 0 0 0 0 44 31.1 31.1 0 0 0 44 0l62.3-62.3 62.3 62.3a31.1 31.1 0 0 0 44 0 31.1 31.1 0 0 0 0-44z"/></symbol><symbol id="right-arrow" viewBox="0 0 355.3 355.3"><path fill="#ee4657" d="M230.1 129.8l-67.3-67.3a33.6 33.6 0 0 0-47.6 0 33.6 33.6 0 0 0 0 47.6l67.3 67.3-67.3 67.3a33.6 33.6 0 0 0 0 47.6 33.6 33.6 0 0 0 47.6 0l67.3-67.3a67.3 67.3 0 0 0 0-95.1z"/></symbol><symbol id="search" viewBox="0 0 355.3 355.3"><path fill="#ee4657" d="M333.7 306.2l-81-81a136 136 0 1 0-45.3 34.5l.6.6 85.8 85.8a28.2 28.2 0 0 0 39.9-39.9zM46.9 136.4a102.5 102.5 0 1 1 167 79.6q-2.7 2.2-5.5 4.2a102.5 102.5 0 0 1-161.5-83.8z"/></symbol><symbol id="twitter" viewBox="0 0 355.3 355.3"><path fill="#ee4657" d="M111.8 321.8c133.9 0 207.1-110.9 207.1-207.1 0-3.2-.1-6.3-.2-9.4A148.1 148.1 0 0 0 355 67.6 145.3 145.3 0 0 1 313.2 79a73 73 0 0 0 32-40.3A145.9 145.9 0 0 1 299 56.4a72.9 72.9 0 0 0-124 66.4 206.7 206.7 0 0 1-150.1-76A72.9 72.9 0 0 0 47.4 144a72.3 72.3 0 0 1-33-9.1v.9a72.8 72.8 0 0 0 58.4 71.4 72.7 72.7 0 0 1-32.8 1.2 72.9 72.9 0 0 0 68 50.6 146.1 146.1 0 0 1-90.4 31.2 148.1 148.1 0 0 1-17.4-1 206.1 206.1 0 0 0 111.6 32.7"/></symbol></svg>