<svg xmlns="http://www.w3.org/2000/svg" width="355.3" height="355.3" viewBox="0 0 355.3 355.3"><path fill="#ee4657" d="M177.6 0c-48.2 0-54.3.2-73.2 1.1S72.6 4.9 61.3 9.3a87.1 87.1 0 0 0-31.5 20.5A87.1 87.1 0 0 0 9.3 61.3c-4.4 11.3-7.4 24.2-8.2 43.1S0 129.4 0 177.6s.2 54.3 1.1 73.2 3.8 31.9 8.2 43.2a87.1 87.1 0 0 0 20.5 31.5A87.1 87.1 0 0 0 61.3 346c11.3 4.4 24.2 7.4 43.1 8.3s25 1.1 73.2 1.1 54.3-.2 73.2-1.1 31.8-3.9 43.1-8.3a90.8 90.8 0 0 0 52-52c4.4-11.3 7.4-24.2 8.3-43.1s1.1-25 1.1-73.2-.2-54.3-1.1-73.2-3.9-31.8-8.3-43.1a87.1 87.1 0 0 0-20.5-31.5A87.1 87.1 0 0 0 294 9.3c-11.3-4.4-24.2-7.4-43.1-8.3s-25-1-73.3-1zm0 32c47.4 0 53 .2 71.8 1s26.7 3.7 33 6.1a55 55 0 0 1 20.4 13.3 55 55 0 0 1 13.3 20.4c2.4 6.3 5.3 15.7 6.1 33s1 24.3 1 71.8-.2 53-1 71.8-3.7 26.7-6.1 33a58.8 58.8 0 0 1-33.7 33.7c-6.3 2.4-15.7 5.3-33 6.1s-24.3 1-71.8 1-53-.2-71.8-1-26.7-3.7-33-6.1a55 55 0 0 1-20.4-13.3 55 55 0 0 1-13.3-20.4c-2.4-6.3-5.3-15.7-6.1-33s-1-24.3-1-71.8.2-53 1-71.8 3.7-26.7 6.1-33a55 55 0 0 1 13.3-20.4 55 55 0 0 1 20.5-13.2c6.3-2.4 15.7-5.3 33-6.1s24.3-1 71.8-1"/><path fill="#ee4657" d="M177.6 236.8a59.2 59.2 0 1 1 59.2-59.2 59.2 59.2 0 0 1-59.2 59.2zm0-150.4a91.2 91.2 0 1 0 91.2 91.2 91.2 91.2 0 0 0-91.2-91.2zm116.2-3.6a21.3 21.3 0 1 1-21.3-21.3 21.3 21.3 0 0 1 21.3 21.3z"/></svg>