<svg id="Layer_1" data-name="Layer 1" xmlns="http://www.w3.org/2000/svg" width="0.4in" height="0.4in" viewBox="0 0 32 32"><title>logo-32</title><path d="M20,.7a26.9,26.9,0,0,0-5.1,7.5,29.3,29.3,0,0,0-1.2,3.5.3.3,0,0,0,.2.4c.3.1.1-.1.4-.4a14.2,14.2,0,0,1,8.1-6.4,13.7,13.7,0,0,1,5.9-1l1.8.3,1.3.2c.3,0,.6,0,.7.5s0,.7-.5.8a5.3,5.3,0,0,0-2.5,2.1A33.3,33.3,0,0,1,23,14.1a25.9,25.9,0,0,1-2.9,1.6,4.6,4.6,0,0,1,.8,4.3c-.4,1.2-.8,2.3-1.3,3.4a7.6,7.6,0,0,1-3,3.5l-2.8,1.7a7,7,0,0,1-6.2.4,30.7,30.7,0,0,1-3.2-1.5,4.9,4.9,0,0,1-1.6-.9,19.1,19.1,0,0,1-1.6-2.5,4.4,4.4,0,0,1-.6-1.2A14.9,14.9,0,0,1,0,19.8a6,6,0,0,1,1.7-4,5.7,5.7,0,0,1,2.8-1.6,6.7,6.7,0,0,0,1.8-1,8.3,8.3,0,0,1,5.6-1.4c.4,0,.5,0,.7-.4a28,28,0,0,1,3.7-7.6L18.6.5l.2-.2A.8.8,0,0,1,20,.6S20,.7,20,.7ZM6.3,26l1.2.2,3-.2a11.5,11.5,0,0,0,5.9-2.5c1.5-1.2,2.2-2.6,1.5-4.4v-.4a13.5,13.5,0,0,0-.6-1.3.7.7,0,0,0-1-.3,12.2,12.2,0,0,1-3,.2c-.6,0-.9-.1-1.2-.7a.9.9,0,0,0-.4-.5l-1.2-.4a4.8,4.8,0,0,0-2.9.7c-1.2.9-3.8,4.3-2.8,7.7A2.9,2.9,0,0,0,6.3,26ZM28.7,6a6.1,6.1,0,0,0-3.1-.3c-1.9.1-2.5.7-4.2,1.4A10.5,10.5,0,0,0,17,10.6a16.8,16.8,0,0,0-.8,1.5,9.9,9.9,0,0,1,3.5,2h.3l1.1-.4a13.6,13.6,0,0,0,4.3-3C26.6,9.1,27.4,7.6,28.7,6ZM2.6,21.9c.7-3.1.9-4.4,3.8-6.2-.6,0-1.2-.2-1.7.3a7.9,7.9,0,0,0-2,2.6A3.8,3.8,0,0,0,2.6,21.9Zm6.1,5.5c2.9,1.9,6.1-.3,7.2-2.2a10.6,10.6,0,0,1-5,2.1m5.4-11.7a.3.3,0,0,0,.2-.5A10,10,0,0,0,14.4,14h-.3c-.7.3-.3,1.8.5,1.8ZM7.1,13.8a6.6,6.6,0,0,0,1.6-.2,10.4,10.4,0,0,1,1.9-.6,1,1,0,0,0,.6-.3A4.2,4.2,0,0,0,7.1,13.8Zm13.1,5.7a2.7,2.7,0,0,0-.6-3c-.3-.2-.4-.3-.7-.1A5,5,0,0,1,20.2,19.5Zm-9.9-5.7h-.1l1.4.3v-.7Z" fill="#ef4657"/></svg>