<svg id="Layer_1" data-name="Layer 1" xmlns="http://www.w3.org/2000/svg" width="0.2in" height="0.2in" viewBox="0 0 16 16"><title>logo-16</title><path d="M10,.3A13.3,13.3,0,0,0,7.5,4a14.4,14.4,0,0,0-.6,1.7.1.1,0,0,0,.1.2c.1.1.1,0,.2-.2a7,7,0,0,1,4-3.1A6.7,6.7,0,0,1,14,2h1.5c.2,0,.3,0,.3.2s0,.3-.2.4A2.6,2.6,0,0,0,14.4,4a16.4,16.4,0,0,1-2.9,2.9L10,7.7a2.3,2.3,0,0,1,.4,2.1l-.6,1.7a3.7,3.7,0,0,1-1.5,1.7L6.9,14a3.4,3.4,0,0,1-3.1.2l-1.6-.8a2.4,2.4,0,0,1-.8-.5,9.4,9.4,0,0,1-.8-1.2,2.2,2.2,0,0,1-.3-.6A7.3,7.3,0,0,1,.2,9.7a2.9,2.9,0,0,1,.9-2,2.8,2.8,0,0,1,1.4-.8l.9-.5A4.1,4.1,0,0,1,6,5.7c.2,0,.3,0,.3-.2A13.8,13.8,0,0,1,8.1,1.8L9.3.2h.1a.4.4,0,0,1,.6.1ZM3.3,12.7H5.3a5.6,5.6,0,0,0,2.9-1.2A1.8,1.8,0,0,0,9,9.4V9.2l-.3-.6a.4.4,0,0,0-.5-.2H6.6c-.3,0-.5-.1-.6-.4l-.2-.2-.6-.2A2.4,2.4,0,0,0,3.8,8a4.1,4.1,0,0,0-1.4,3.8,1.4,1.4,0,0,0,.9.9Zm11-9.9a3,3,0,0,0-1.5-.2,4.5,4.5,0,0,0-2.1.7A5.1,5.1,0,0,0,8.5,5.2l-.4.7a4.8,4.8,0,0,1,1.7,1H10l.6-.2a6.7,6.7,0,0,0,2.1-1.5C13.3,4.4,13.6,3.7,14.3,2.9ZM1.4,10.7c.3-1.5.5-2.2,1.9-3.1-.3,0-.6-.1-.9.1a3.9,3.9,0,0,0-1,1.3A1.9,1.9,0,0,0,1.4,10.7Zm3,2.7A2.6,2.6,0,0,0,8,12.4a5.2,5.2,0,0,1-2.5,1M8.2,7.7a.1.1,0,0,0,.1-.2,4.9,4.9,0,0,0-1-.6H7.1c-.4.1-.1.9.2.9ZM3.7,6.7h.8l.9-.3.3-.2A2.1,2.1,0,0,0,3.7,6.7Zm6.5,2.8A1.3,1.3,0,0,0,9.8,8c-.1-.1-.2-.2-.4-.1A2.4,2.4,0,0,1,10.1,9.5ZM5.2,6.7h0l.7.2V6.6Z" fill="#ef4657"/></svg>