<svg id="Layer_1" data-name="Layer 1" xmlns="http://www.w3.org/2000/svg" width="0.9in" height="0.9in" viewBox="0 0 63.4 63.4"><title>pomme-logo-64</title><path d="M39.6,1.8A53.4,53.4,0,0,0,29.5,16.7a58.1,58.1,0,0,0-2.5,7,.6.6,0,0,0,.3.7c.5.3.3-.1.7-.9,3.6-6.4,9.3-10.3,16.1-12.7,3.8-1.3,7.6-2.4,11.6-2l3.5.5,2.6.4c.6.1,1.3.1,1.3,1s0,1.4-1,1.6-3.5,2.6-4.9,4.3A66.1,66.1,0,0,1,45.6,28.4a51.3,51.3,0,0,1-5.8,3.2,9.1,9.1,0,0,1,1.7,8.5c-.8,2.3-1.6,4.6-2.5,6.8a15.1,15.1,0,0,1-6,6.9l-5.6,3.4a13.8,13.8,0,0,1-12.3.9A60.9,60.9,0,0,1,8.6,55a9.8,9.8,0,0,1-3.1-1.8,38,38,0,0,1-3.2-4.9A8.8,8.8,0,0,1,1,45.9,29.5,29.5,0,0,1-.1,39.7c0-3.1,1.4-5.7,3.5-8a11.3,11.3,0,0,1,5.5-3.2,13.3,13.3,0,0,0,3.6-2,16.5,16.5,0,0,1,11-2.8c.7.1,1.1.1,1.3-.8A55.5,55.5,0,0,1,32.1,7.8c1.5-2.2,3.1-4.3,4.7-6.4l.3-.3a1.5,1.5,0,0,1,2.5.6C39.6,1.7,39.6,1.8,39.6,1.8ZM11.1,53.2a6.8,6.8,0,0,0,2.7.5,67.2,67.2,0,0,0,6.8-.4,25.9,25.9,0,0,0,13.3-5.6c3.4-2.6,4.9-5.8,3.3-10-.1-.3-.2-.7-.3-1A30.5,30.5,0,0,0,35.5,34a1.7,1.7,0,0,0-2.4-.7,27.5,27.5,0,0,1-6.9.3c-1.3-.1-2.1-.3-2.6-1.6a2.1,2.1,0,0,0-1-1.1,12.3,12.3,0,0,0-2.7-1c-1.6-.4-5.3.7-6.4,1.6S5,41.3,7.2,49a6.6,6.6,0,0,0,3.9,4.2ZM59,11.1c-1.8-1-4.2-.9-7.2-.8S46,11.9,42,13.6a24.1,24.1,0,0,0-10.1,8.1A38.7,38.7,0,0,0,30,25.1c3.8,1.2,5,2.4,8,4.7a.9.9,0,0,0,.7,0,19.5,19.5,0,0,0,2.6-1c3.6-1.9,7.2-3.9,9.9-6.9S55.9,14.7,59,11.1ZM4.2,45.7c1.7-7.9,2.4-11.2,9.7-15.8-1.6,0-3.1-.5-4.4.7a20.1,20.1,0,0,0-5,6.7A9.7,9.7,0,0,0,4.2,45.7Zm9,9.3c9.2,5.8,19.2-1,22.4-6.8C31,52,25.7,53.7,20,54.7M33,32a.8.8,0,0,0,.5-1.3c-1.5-1.4-3.2-1.9-5.3-3.1-.2-.1-.5-.5-.7-.3-1.9.8-.7,4.5,1.2,4.7A33,33,0,0,0,33,32Zm-20-3.9a16.7,16.7,0,0,0,4.1-.4,26.5,26.5,0,0,1,4.7-1.6,2.6,2.6,0,0,0,1.6-.9C19.2,24.3,15.3,25.4,12.9,28.1ZM40.4,39.7c.9-2.9.6-5.5-1.4-7.2s-1-.8-1.8-.3C39.4,34.7,39.6,35.9,40.4,39.7ZM1.9,41.5c.3-4.4,2.5-7.6,5.4-10.5C3.5,31.9.7,37.3,1.9,41.5ZM19.4,27.9c0,.1-.2.1-.2.2l4.9,1.2V26.7Zm7.8-2.3c.2.4.2.6.3.6A23.7,23.7,0,0,1,36.1,31c.2.1.5,0,.8.1C34.1,28.9,30.8,26.5,27.2,25.6Z" fill="#ef4657"/></svg>