<svg id="Layer_1" data-name="Layer 1" xmlns="http://www.w3.org/2000/svg" width="3.6in" height="3.6in" viewBox="0 0 256 256"><title>pomme-logo-256</title><path d="M160.5,11.2c-17.3,17.6-30.2,38.1-40.6,60.2-4.3,9-6.9,18.8-10,28.3a2.3,2.3,0,0,0,1.2,3c2.2,1.1,1-.4,2.8-3.6,14.6-25.9,37.4-41.6,65-51.2,15.2-5.3,30.5-9.8,46.9-8.2,4.7.5,9.4,1.4,14.1,2.1s7,1.2,10.5,1.6,5.2.3,5.3,4,0,5.5-3.9,6.6c-9.2,2.5-14.1,10.4-19.6,17.2-14.3,17.3-29.3,34.1-47.5,47.4-7.1,5.1-15.4,8.6-23.4,12.9,5.2,6.8,8.6,14.6,8.3,23.5a36.5,36.5,0,0,1-1.6,10.6c-3.1,9.3-6.5,18.5-10.2,27.6-4.9,12.1-13.7,21-24.4,28-7.4,4.8-15.1,9.1-22.7,13.6-16,9.4-32.8,9.7-49.6,3.5-8.8-3.2-17.1-8-25.6-12.3-4.3-2.2-9.5-3.9-12.5-7.4-5.1-6-8.9-13.1-13-19.8-1.9-3.1-4.2-6.3-5-9.8C3,180.8.8,172.5.6,164.1.5,151.7,6.5,141.2,14.6,132c5.8-6.6,13.8-10.7,22.3-13,5.2-1.5,9.8-5.1,14.4-8.2,13.5-9.1,28.4-12.6,44.5-11.2,2.9.3,4.3.2,5.4-3.3a224,224,0,0,1,29.3-60.9c6-8.8,12.3-17.3,18.8-25.8l1.3-1.4a6.2,6.2,0,0,1,9.9,2.3C160.6,10.9,160.6,11.1,160.5,11.2ZM45.7,218.8a27.3,27.3,0,0,0,11,2c9.2-.2,18.4-.3,27.5-1.4,20.6-2.7,37-9.5,53.6-22.4,13.5-10.5,19.9-23.3,13.2-40.5-.5-1.2-.6-2.7-1.2-3.8-2.2-4.5-3-7.1-5.5-11.4-1.7-2.7-4-5-9.5-2.9-1.2.4-11.8,2.2-27.7,1.4-5.2-.3-8.5-1.3-10.5-6.5a8.3,8.3,0,0,0-4.1-4.5,49.8,49.8,0,0,0-10.8-3.9c-6.6-1.5-21.3,2.8-26,6.5-10.6,8.4-34.7,39.4-25.7,70.4a26.7,26.7,0,0,0,15.8,17Zm193.2-170c-7.1-4.2-17-3.5-29.1-3.1-17.9.5-23.3,6.2-39.4,13.3a97.2,97.2,0,0,0-40.7,32.8c-2.9,4-5,8.7-7.8,13.7,15.4,5,20.4,9.8,32.3,18.8a3.6,3.6,0,0,0,2.8.1,78.6,78.6,0,0,0,10.5-4c14.6-7.5,29.2-15.5,39.8-28C219.5,78,226.6,63.5,238.9,48.8ZM17.9,188.2c6.7-31.7,9.7-45.2,38.9-63.8-6.3-.1-12.5-1.8-17.8,2.7a81,81,0,0,0-20.3,27C13.5,165.3,12.8,176.6,17.9,188.2Zm36.3,37.5c37,23.5,77.3-4.2,90.5-27.2-18.8,15.3-40.3,22.1-63.2,26.2M133.8,133a3,3,0,0,0,2.1-5.2c-6-5.8-13-7.5-21.4-12.5-1-.6-1.9-1.9-3-1.4-7.5,3.1-3,18,5,18.8S127.2,133.1,133.8,133ZM53,117.3c5.5-.5,11.4.1,16.4-1.7,8.1-2.9,7.4-3.7,19.2-6.4,3.8-.7,4.5-2.1,6.3-3.6C78.2,102,62.6,106.6,53,117.3Zm110.7,47c3.5-11.7,2.4-22.2-5.8-29.1-2.8-2.4-4.2-3.4-7.1-1C159.7,144,160.8,148.8,163.8,164.3Zm-155.3,7c1.3-17.7,10.2-30.8,21.9-42.5C15,132.9,3.8,154.5,8.5,171.3Zm70.6-54.7c.1.5-.8.4-.8,1l19.8,5V111.9C91,113.4,85.6,115.3,79.1,116.6Zm31.4-9.3c.9,1.8,1,2.5,1.3,2.6A95.6,95.6,0,0,1,146.6,129c.6.5,2,.2,3.1.2C138.6,120.6,125.2,110.9,110.4,107.3Z" fill="#ef4657"/></svg>