<svg id="Layer_1" data-name="Layer 1" xmlns="http://www.w3.org/2000/svg" width="0.2in" height="0.2in" viewBox="0 0 16 16"><title>pomme-logo-16</title><path d="M10,.3A13.4,13.4,0,0,0,7.5,4a14.6,14.6,0,0,0-.6,1.8.1.1,0,0,0,.1.2c.1.1.1,0,.2-.2a7,7,0,0,1,4-3.2,6.8,6.8,0,0,1,2.9-.5h1.5c.2,0,.3,0,.3.2s0,.3-.2.4A2.6,2.6,0,0,0,14.5,4a16.6,16.6,0,0,1-3,2.9l-1.5.8a2.3,2.3,0,0,1,.4,2.1l-.6,1.7a3.8,3.8,0,0,1-1.5,1.7l-1.4.8a3.5,3.5,0,0,1-3.1.2l-1.6-.8a2.4,2.4,0,0,1-.8-.5A9.5,9.5,0,0,1,.6,12a2.2,2.2,0,0,1-.3-.6A7.4,7.4,0,0,1,.1,9.8a3,3,0,0,1,.9-2A2.8,2.8,0,0,1,2.3,7l.9-.5A4.2,4.2,0,0,1,6,5.8c.2,0,.3,0,.3-.2A13.9,13.9,0,0,1,8.1,1.8L9.3.2h.1a.4.4,0,0,1,.6.1ZM2.9,13.2H5.3a6.5,6.5,0,0,0,3.3-1.4,2,2,0,0,0,.8-2.5V9.1L9,8.4a.4.4,0,0,0-.6-.2H6.7c-.3,0-.5-.1-.7-.4l-.3-.3-.7-.2a2.7,2.7,0,0,0-1.6.4c-.7.5-2.2,2.5-1.6,4.4a1.7,1.7,0,0,0,1,1.1Zm12-10.6a3.5,3.5,0,0,0-1.8-.2,5.3,5.3,0,0,0-2.5.8,6,6,0,0,0-2.5,2l-.5.9a5.7,5.7,0,0,1,2,1.2h.2l.7-.2a7.8,7.8,0,0,0,2.5-1.7C13.7,4.4,14.1,3.5,14.9,2.6ZM1.1,11.3c.4-2,.6-2.8,2.4-4-.4,0-.8-.1-1.1.2A5,5,0,0,0,1.2,9.2,2.4,2.4,0,0,0,1.1,11.3Zm2.3,2.3c2.3,1.5,4.8-.3,5.6-1.7a8.3,8.3,0,0,1-3.9,1.6M8.4,7.9a.2.2,0,0,0,.1-.3,6.3,6.3,0,0,0-1.3-.8H7c-.5.2-.2,1.1.3,1.2Zm-5-1h1l1.2-.4.4-.2A2.7,2.7,0,0,0,3.3,6.9Zm6.9,2.9A1.6,1.6,0,0,0,9.9,8c-.2-.1-.3-.2-.4-.1A3,3,0,0,1,10.2,9.8Zm-9.7.4A4.1,4.1,0,0,1,1.9,7.6,2.3,2.3,0,0,0,.5,10.2ZM4.9,6.8h0l1.2.3V6.6Zm2-.6v.2A5.9,5.9,0,0,1,9.1,7.6h.2A6.8,6.8,0,0,0,6.9,6.3Z" fill="#ef4657"/></svg>