<svg id="Layer_1" data-name="Layer 1" xmlns="http://www.w3.org/2000/svg" width="0.4in" height="0.4in" viewBox="0 0 32 32"><title>pomme-logo-32</title><path d="M20,.7a26.9,26.9,0,0,0-5.1,7.5,29.3,29.3,0,0,0-1.2,3.5.3.3,0,0,0,.2.4c.3.1.1-.1.4-.4a14.2,14.2,0,0,1,8.1-6.4,13.7,13.7,0,0,1,5.9-1l1.8.3,1.3.2c.3,0,.6,0,.7.5s0,.7-.5.8a5.3,5.3,0,0,0-2.5,2.1A33.3,33.3,0,0,1,23,14.1a25.9,25.9,0,0,1-2.9,1.6,4.6,4.6,0,0,1,.8,4.3c-.4,1.2-.8,2.3-1.3,3.4a7.6,7.6,0,0,1-3,3.5l-2.8,1.7a7,7,0,0,1-6.2.4,30.7,30.7,0,0,1-3.2-1.5,4.9,4.9,0,0,1-1.6-.9,19.1,19.1,0,0,1-1.6-2.5,4.4,4.4,0,0,1-.6-1.2A14.9,14.9,0,0,1,0,19.8a6,6,0,0,1,1.7-4,5.7,5.7,0,0,1,2.8-1.6,6.7,6.7,0,0,0,1.8-1,8.3,8.3,0,0,1,5.6-1.4c.4,0,.5,0,.7-.4a28,28,0,0,1,3.7-7.6L18.6.5l.2-.2A.8.8,0,0,1,20,.6S20,.7,20,.7ZM5.6,26.6l1.4.3,3.4-.2a13,13,0,0,0,6.7-2.8c1.7-1.3,2.5-2.9,1.7-5.1l-.2-.5a15.4,15.4,0,0,0-.7-1.4.8.8,0,0,0-1.2-.4,13.9,13.9,0,0,1-3.5.2c-.6,0-1.1-.2-1.3-.8a1,1,0,0,0-.5-.6l-1.4-.5a5.5,5.5,0,0,0-3.2.8c-1.3,1-4.3,4.9-3.2,8.8a3.3,3.3,0,0,0,2,2.1ZM29.8,5.4c-.9-.5-2.1-.4-3.6-.4s-2.9.8-4.9,1.7a12.1,12.1,0,0,0-5.1,4.1,19.5,19.5,0,0,0-1,1.7,11.5,11.5,0,0,1,4,2.3h.4l1.3-.5a15.8,15.8,0,0,0,5-3.5C27.3,9,28.2,7.2,29.8,5.4ZM2.2,22.8c.8-4,1.2-5.6,4.9-8-.8,0-1.6-.2-2.2.3a10.1,10.1,0,0,0-2.5,3.4A4.9,4.9,0,0,0,2.2,22.8Zm4.5,4.7c4.6,2.9,9.7-.5,11.3-3.4a16.6,16.6,0,0,1-7.9,3.3m6.5-11.4a.4.4,0,0,0,.3-.6,12.7,12.7,0,0,0-2.7-1.6c-.1-.1-.2-.2-.4-.2s-.4,2.3.6,2.4Zm-10.1-2a8.4,8.4,0,0,0,2-.2,13.4,13.4,0,0,1,2.4-.8,1.3,1.3,0,0,0,.8-.4A5.4,5.4,0,0,0,6.5,13.9Zm13.8,5.9a3.3,3.3,0,0,0-.7-3.6c-.4-.3-.5-.4-.9-.1S20,17.9,20.4,19.8ZM1,20.7a8.2,8.2,0,0,1,2.7-5.3C1.8,15.9.4,18.6,1,20.7Zm8.8-6.8H9.7l2.5.6V13.3Zm3.9-1.2.2.3a12,12,0,0,1,4.4,2.4h.4A13.6,13.6,0,0,0,13.7,12.7Z" fill="#ef4657"/></svg>