<svg xmlns="http://www.w3.org/2000/svg" width="355.3" height="355.3" viewBox="0 0 355.3 355.3"><path fill="#ee4657" d="M111.8 321.8c133.9 0 207.1-110.9 207.1-207.1 0-3.2-.1-6.3-.2-9.4A148.1 148.1 0 0 0 355 67.6 145.3 145.3 0 0 1 313.2 79a73 73 0 0 0 32-40.3A145.9 145.9 0 0 1 299 56.4a72.9 72.9 0 0 0-124 66.4 206.7 206.7 0 0 1-150.1-76A72.9 72.9 0 0 0 47.4 144a72.3 72.3 0 0 1-33-9.1v.9a72.8 72.8 0 0 0 58.4 71.4 72.7 72.7 0 0 1-32.8 1.2 72.9 72.9 0 0 0 68 50.6 146.1 146.1 0 0 1-90.4 31.2 148.1 148.1 0 0 1-17.4-1 206.1 206.1 0 0 0 111.6 32.7"/></svg>